<?xml version="1.0" encoding="UTF-8" standalone="no"?>
<!-- Created with Inkscape (http://www.inkscape.org/) -->

<svg
   width="120"
   height="120"
   viewBox="0 0 31.75 31.75"
   version="1.1"
   id="svg5"
   inkscape:version="1.1 (1:1.1+202106031931+af4d65493e)"
   sodipodi:docname="icone.svg"
   xmlns:inkscape="http://www.inkscape.org/namespaces/inkscape"
   xmlns:sodipodi="http://sodipodi.sourceforge.net/DTD/sodipodi-0.dtd"
   xmlns="http://www.w3.org/2000/svg"
   xmlns:svg="http://www.w3.org/2000/svg">
  <sodipodi:namedview
     id="namedview7"
     pagecolor="#505050"
     bordercolor="#eeeeee"
     borderopacity="1"
     inkscape:pageshadow="0"
     inkscape:pageopacity="0"
     inkscape:pagecheckerboard="0"
     inkscape:document-units="px"
     showgrid="false"
     inkscape:zoom="1.8561553"
     inkscape:cx="-110.71272"
     inkscape:cy="127.41391"
     inkscape:window-width="1920"
     inkscape:window-height="1018"
     inkscape:window-x="1920"
     inkscape:window-y="34"
     inkscape:window-maximized="1"
     inkscape:current-layer="layer1" />
  <defs
     id="defs2">
    <style
       type="text/css"
       id="style64">
   <![CDATA[
    .fil1 {fill:#00838F;fill-rule:nonzero}
    .fil3 {fill:#4A138C;fill-rule:nonzero}
    .fil2 {fill:#FF8F00;fill-rule:nonzero}
    .fil0 {fill:white;fill-rule:nonzero}
   ]]>
  </style>
  </defs>
  <g
     inkscape:label="Camada 1"
     inkscape:groupmode="layer"
     id="layer1">
    <g
       style="clip-rule:evenodd;fill-rule:evenodd;image-rendering:optimizeQuality;shape-rendering:geometricPrecision;text-rendering:geometricPrecision"
       id="g97"
       transform="matrix(0.09026712,0,0,0.09494154,1.2151906,2.4201036)">
      <g
         id="Camada_x0020_1"
         inkscape:label="Camada 1"
         inkscape:groupmode="layer">
  <metadata
   id="CorelCorpID_0Corel-Layer" />

  <g
   id="_2924768861616">
   <path
   class="fil0"
   d="m 211.44,37.99 c -1.14,0 -2.19,0.47 -2.95,1.24 -0.75,0.75 -1.22,1.79 -1.22,2.92 h 0.02 v 48.96 c 0,2.3 -0.93,4.39 -2.45,5.91 -1.51,1.51 -3.6,2.45 -5.91,2.45 -2.31,0 -4.39,-0.94 -5.91,-2.45 -1.51,-1.52 -2.45,-3.61 -2.45,-5.91 V 18.09 h 0.03 c 0,-1.61 -0.68,-3.09 -1.76,-4.17 -1.08,-1.08 -2.56,-1.76 -4.17,-1.76 h -0.17 v 0.02 c -0.78,0 -1.55,0.16 -2.25,0.46 -0.7,0.29 -1.33,0.7 -1.85,1.21 -0.54,0.58 -0.96,1.22 -1.23,1.91 l -0.01,0.02 h 0.01 c -0.27,0.68 -0.42,1.44 -0.42,2.25 v 0.13 h -0.02 v 72.95 h 0.03 c 0,2.3 -0.94,4.39 -2.45,5.91 -1.52,1.51 -3.61,2.45 -5.91,2.45 -2.29,0 -4.38,-0.95 -5.9,-2.47 l -0.01,0.02 c -1.52,-1.52 -2.45,-3.6 -2.45,-5.91 h 0.02 V 19.05 c 0,-1.88 -0.78,-3.59 -2.04,-4.85 -1.25,-1.26 -2.97,-2.04 -4.84,-2.04 v 0.03 c -1.99,0 -3.57,0.78 -4.68,1.96 -1.41,1.5 -2.18,3.61 -2.18,5.71 h -0.03 v 71.25 h 0.03 c 0,2.31 -0.94,4.39 -2.45,5.91 -1.5,1.49 -3.59,2.42 -5.91,2.42 v 0.03 c -2.31,0 -4.4,-0.94 -5.91,-2.45 -1.52,-1.52 -2.45,-3.61 -2.45,-5.91 V 32.74 h 0.02 c 0,-1.61 -0.67,-3.09 -1.76,-4.17 -1.08,-1.09 -2.56,-1.76 -4.17,-1.76 v 0.02 c -1.7,0 -3.06,0.67 -4.02,1.68 -1.22,1.31 -1.89,3.15 -1.89,5 h -0.02 v 82.47 h 20.57 c 6.16,0 12.21,1.35 17.74,3.89 5.52,2.52 10.49,6.22 14.53,10.9 l 0.02,0.02 c 0.65,0.77 1.16,1.63 1.5,2.55 0.08,0.22 0.15,0.44 0.2,0.65 0.21,0.75 0.32,1.5 0.32,2.24 0,1.17 -0.27,2.35 -0.77,3.46 -0.5,1.08 -1.22,2.05 -2.13,2.84 -0.75,0.65 -1.62,1.16 -2.55,1.51 -0.96,0.36 -1.95,0.54 -2.9,0.54 -1.18,0 -2.36,-0.27 -3.47,-0.77 -1.08,-0.5 -2.05,-1.22 -2.84,-2.13 -2.47,-2.86 -5.5,-5.12 -8.84,-6.65 -3.33,-1.52 -7.01,-2.34 -10.81,-2.34 h -28.91 c -0.21,0 -0.41,-0.01 -0.62,-0.03 h -0.07 c -0.66,-0.03 -1.29,-0.16 -1.88,-0.39 l -0.05,-0.01 c -0.29,-0.1 -0.59,-0.22 -0.91,-0.37 l -0.47,-0.24 v 0.01 c -0.21,-0.11 -0.45,-0.27 -0.71,-0.45 l -0.01,0.01 c -0.14,-0.1 -0.33,-0.25 -0.57,-0.45 l -0.01,0.01 -0.06,-0.05 c -0.12,-0.1 -0.24,-0.2 -0.36,-0.31 L 94.39,119.79 c -1.41,-1.32 -3.03,-2.35 -4.77,-3.04 -1.75,-0.7 -3.67,-1.07 -5.67,-1.07 -2.04,0 -4.02,0.4 -5.84,1.15 -1.71,0.71 -3.28,1.72 -4.63,2.99 l 42.28,45.87 c 7.98,8.84 15.93,15.02 24.73,18.94 8.8,3.91 18.72,5.67 30.64,5.67 24.51,0 44.46,-20.18 44.46,-44.99 V 42.61 c 0,-1.22 -0.4,-2.44 -1.15,-3.33 -0.65,-0.76 -1.64,-1.28 -2.95,-1.29 v 0.02 h -0.05 z m -8.68,-9.64 c 2.51,-1.58 5.48,-2.5 8.68,-2.5 v -0.02 h 0.05 v 0.02 h 0.03 c 5.27,0.03 9.37,2.26 12.16,5.53 2.69,3.16 4.09,7.27 4.09,11.23 v 102.7 c 0,31.53 -25.41,57.17 -56.64,57.17 -13.55,0 -25.04,-2.09 -35.54,-6.76 -10.51,-4.67 -19.78,-11.81 -28.87,-21.89 L 64.2,127.7 c -0.99,-1.08 -1.76,-2.32 -2.28,-3.65 -0.54,-1.36 -0.82,-2.8 -0.82,-4.25 0,-1.53 0.32,-3.06 0.91,-4.47 0.59,-1.41 1.46,-2.71 2.58,-3.81 2.57,-2.56 5.59,-4.56 8.86,-5.92 3.31,-1.37 6.88,-2.1 10.5,-2.1 3.47,0 6.91,0.68 10.14,1.97 3.18,1.26 6.11,3.11 8.63,5.47 l 4.9,4.6 V 33.51 h -0.02 c 0,-4.81 1.84,-9.73 5.22,-13.32 3.14,-3.34 7.51,-5.54 12.87,-5.54 v 0.02 c 3.93,0.01 7.57,1.25 10.53,3.37 0.4,-4.47 2.29,-8.89 5.42,-12.22 3.3,-3.5 7.9,-5.82 13.54,-5.82 v 0.02 c 5.27,0.01 10.03,2.14 13.46,5.57 0.52,0.52 1.02,1.08 1.48,1.66 0.45,-0.62 0.95,-1.22 1.48,-1.78 l 0.08,-0.07 c 1.7,-1.74 3.7,-3.09 5.86,-4 2.18,-0.91 4.55,-1.4 6.96,-1.4 v 0.02 h 0.21 c 4.99,0.02 9.5,2.04 12.75,5.28 3.25,3.26 5.27,7.78 5.27,12.79 h 0.03 z"
   id="path69" />

   <path
   class="fil1"
   d="m 211.44,31.92 c -5.65,0.01 -10.23,4.59 -10.24,10.23 v 48.96 c 0,1.25 -1.02,2.26 -2.27,2.26 -1.25,0 -2.26,-1.01 -2.26,-2.26 V 18.09 c -0.01,-6.62 -5.38,-11.99 -12,-12 -0.06,0 -0.12,0 -0.17,0 -3.19,0 -6.26,1.29 -8.49,3.57 -2.15,2.25 -3.35,5.25 -3.35,8.37 0,0.04 0,0.08 0,0.13 v 72.95 c 0,1.25 -1.01,2.26 -2.26,2.26 -1.25,0 -2.27,-1.01 -2.27,-2.26 V 19.05 C 168.12,11.9 162.33,6.1 155.18,6.09 c -8.11,0 -12.96,7.01 -12.96,13.77 v 71.25 c 0,1.25 -1.01,2.26 -2.26,2.26 -1.25,0 -2.27,-1.01 -2.27,-2.26 V 32.74 c -0.01,-6.62 -5.38,-11.99 -12,-12 -7.51,0 -12,6.49 -12,12.77 v 88.56 h 26.63 c 0,0 0.01,0 0.01,0 10.63,0 20.73,4.63 27.67,12.67 0.36,0.42 0.55,0.94 0.55,1.49 0,0.65 -0.28,1.28 -0.78,1.71 -0.41,0.36 -0.94,0.55 -1.48,0.55 -0.66,0 -1.29,-0.29 -1.72,-0.78 -6.08,-7.05 -14.93,-11.11 -24.24,-11.11 0,0 -0.01,0 -0.01,0 h -28.9 c -0.1,0 -0.2,-0.01 -0.3,-0.03 H 111 c -0.18,-0.04 -0.37,-0.1 -0.54,-0.18 l -0.12,-0.06 c -0.14,-0.08 -0.28,-0.18 -0.41,-0.29 L 109.87,126 98.63,115.44 c -3.96,-3.75 -9.22,-5.85 -14.68,-5.85 -5.66,0 -11.1,2.25 -15.1,6.26 -1.06,1.04 -1.65,2.47 -1.65,3.95 0,1.4 0.53,2.75 1.48,3.78 l 42.56,46.18 c 17.07,18.92 34.42,26.63 59.89,26.63 27.87,0 50.55,-22.91 50.55,-51.08 V 42.66 c 0.02,-5.21 -3.59,-10.74 -10.24,-10.74 z"
   id="path71" />

   <path
   class="fil0"
   d="m 41.38,184.8 -22.55,6.04 c -2.41,0.65 -4.32,2.19 -5.46,4.17 l -0.01,0.02 h 0.01 c -1.15,1.99 -1.54,4.42 -0.89,6.82 v 0.01 c 0.65,2.4 2.19,4.31 4.16,5.45 l 0.02,0.01 0.01,-0.01 c 1.98,1.14 4.41,1.53 6.81,0.89 l 22.55,-6.04 z m -25.7,-5.71 5.12,-1.37 c -3.42,-2.53 -6.06,-6.15 -7.33,-10.51 -0.1,-0.29 -0.18,-0.59 -0.23,-0.9 -1.25,-5.19 -0.35,-10.43 2.14,-14.76 2.57,-4.45 6.84,-7.92 12.2,-9.36 l 20.58,-5.52 v 0.01 l 0.12,-0.03 c 2.67,-0.66 5.36,-0.75 7.92,-0.35 0.79,-1.31 2.06,-2.34 3.66,-2.76 l 18.25,-4.89 v 0 h 0.02 c 16.89,-4.5 34.03,-1.73 48.08,6.38 14.05,8.11 25.01,21.57 29.56,38.47 l 2.13,7.96 c 5.09,19 2.41,38.29 -6.09,54.48 -8.57,16.31 -23.06,29.46 -41.45,35.99 -1.05,0.37 -1.99,0.7 -2.81,0.95 -0.89,0.29 -1.87,0.57 -2.93,0.86 -0.5,0.13 -0.97,0.25 -1.42,0.34 l -0.94,0.18 -0.16,0.05 c -0.18,0.04 -0.36,0.08 -0.55,0.12 -0.22,0.03 -0.67,0.1 -1.36,0.18 -0.77,0.1 -1.23,0.16 -1.38,0.17 l -0.33,0.02 c -0.22,0.02 -0.64,0.04 -1.28,0.06 l -0.07,0.01 c -0.3,0.01 -0.64,0.01 -1.01,0.01 -0.3,0.02 -0.6,0.02 -0.91,0 -0.47,-0.01 -0.85,-0.02 -1.1,-0.04 -0.26,-0.01 -0.56,-0.03 -0.9,-0.06 -0.19,0 -0.38,-0.02 -0.58,-0.04 L 92.3,274.7 v -0.01 c -0.48,-0.05 -0.89,-0.1 -1.2,-0.14 -0.3,-0.05 -0.64,-0.1 -1.01,-0.17 l -0.38,-0.06 -0.3,-0.06 v -0.01 l -0.07,-0.02 c -0.74,-0.15 -1.23,-0.27 -1.71,-0.39 l -0.39,-0.09 v -0.02 c -0.26,-0.06 -0.52,-0.14 -0.78,-0.21 -0.43,-0.12 -0.78,-0.24 -1.09,-0.34 l -1.01,-0.37 c -0.25,-0.1 -0.47,-0.19 -0.73,-0.29 l -0.59,-0.24 c -0.16,-0.06 -0.32,-0.12 -0.48,-0.19 l -1.21,-0.57 c -0.73,0.71 -1.64,1.25 -2.68,1.53 l -36.39,9.75 c -4.97,1.33 -10.02,0.51 -14.17,-1.88 -4.03,-2.32 -7.19,-6.14 -8.59,-10.93 -0.09,-0.26 -0.16,-0.52 -0.21,-0.79 -1.19,-4.85 -0.35,-9.74 1.98,-13.78 h 0.01 c 0.46,-0.8 0.99,-1.57 1.56,-2.3 -1.1,-0.41 -2.17,-0.92 -3.19,-1.51 V 251.6 C 15.05,248.93 11.42,244.54 9.84,239.06 9.75,238.81 9.68,238.55 9.63,238.28 8.25,232.72 9.2,227.1 11.87,222.47 l 0.01,0.01 c 0.62,-1.08 1.34,-2.1 2.14,-3.06 -1.2,-0.43 -2.35,-0.96 -3.45,-1.59 l 0.01,-0.01 C 6,215.16 2.4,210.82 0.83,205.39 0.75,205.14 0.68,204.88 0.63,204.61 -0.74,199.1 0.2,193.53 2.85,188.94 l 0.01,0.01 c 2.71,-4.7 7.2,-8.36 12.82,-9.86 z m 9.43,-15.43 c 0.58,2.13 1.94,3.81 3.68,4.82 1.76,1.01 3.91,1.35 6.04,0.78 l 20.76,-5.55 c 1.94,-0.65 3.48,-1.98 4.42,-3.64 0.98,-1.73 1.3,-3.86 0.74,-5.97 -0.56,-2.08 -1.9,-3.75 -3.63,-4.77 -1.7,-1 -3.76,-1.38 -5.82,-0.91 v 0.01 l -20.58,5.51 c -2.11,0.57 -3.8,1.95 -4.82,3.71 -1.01,1.75 -1.35,3.89 -0.79,6.02 z m 2.84,60.63 c -2.45,0.66 -4.4,2.24 -5.56,4.25 l -0.01,0.02 h 0.01 c -1.17,2.03 -1.56,4.51 -0.91,6.96 l 0.01,0.01 c 0.66,2.45 2.23,4.4 4.24,5.56 l 0.02,0.01 0.01,-0.01 c 2.02,1.17 4.5,1.57 6.96,0.91 l 22.36,-5.99 -4.75,-17.72 z m 49.29,-74.2 c 1.04,4.13 0.97,8.38 -0.1,12.36 -0.27,1.03 -0.62,2.04 -1.03,3.03 3.43,1.42 6.59,3.38 9.36,5.78 5.06,4.39 8.83,10.24 10.65,16.97 l 1.03,3.87 c 0.58,-0.65 1.18,-1.28 1.8,-1.88 4.47,-4.37 10.04,-7.61 16.27,-9.28 l 8.21,-2.2 c 2.21,-0.59 4.46,-0.23 6.31,0.84 1.87,1.08 3.32,2.85 3.92,5.07 0.59,2.22 0.22,4.48 -0.85,6.34 -0.13,0.21 -0.26,0.42 -0.41,0.62 -1.09,1.55 -2.7,2.74 -4.65,3.26 l -8.21,2.2 c -5.42,1.46 -9.74,4.98 -12.35,9.49 -2.59,4.5 -3.48,9.99 -2.04,15.43 h 0.01 l 0.1,0.39 c 0.6,2.21 0.23,4.47 -0.84,6.33 -0.13,0.22 -0.26,0.42 -0.41,0.62 -0.97,1.38 -2.34,2.47 -4,3.06 -0.4,0.16 -0.82,0.28 -1.25,0.35 -2.01,0.38 -4.03,-0.01 -5.72,-0.99 -1.87,-1.07 -3.32,-2.85 -3.91,-5.06 l -9.15,-34.15 c -1.25,-4.66 -4.27,-8.37 -8.15,-10.6 -3.86,-2.23 -8.58,-2.99 -13.25,-1.76 v 0.01 l -1.07,0.29 17.79,66.4 c 0.81,3.03 2.27,5.8 4.23,8.15 1.97,2.36 4.45,4.29 7.28,5.63 l 0.65,0.29 0.34,0.16 0.51,0.21 v -0.02 c 0.08,0.03 -0.1,-0.04 0.35,0.15 0.47,0.16 0.95,0.32 1.42,0.47 l 0.15,0.04 0.01,-0.02 0.38,0.11 c 0.45,0.11 0.87,0.21 1.12,0.27 v -0.01 l 0.52,0.11 0.55,0.08 c 0.38,0.06 0.66,0.09 0.85,0.11 l 0.12,0.02 v -0.02 l 0.46,0.07 0.89,0.05 c 0.43,-0.05 0.75,-0.02 1.08,0.01 0.34,0.03 0.98,-0.04 1.31,-0.07 l 1.15,-0.1 0.55,-0.09 c 0.24,-0.06 0.48,-0.11 0.72,-0.15 l 0.69,-0.15 c 0.31,-0.06 0.59,-0.13 0.84,-0.2 0.74,-0.2 1.55,-0.44 2.42,-0.71 0.94,-0.3 1.74,-0.57 2.42,-0.81 15.41,-5.47 27.55,-16.5 34.74,-30.19 7.12,-13.56 9.37,-29.73 5.1,-45.67 l -2.14,-7.96 C 140.34,162.99 131.48,152.11 120.12,145.55 108.77,139 94.92,136.76 81.25,140.4 v 0 l -7.43,1.99 c 1.42,2.11 2.51,4.45 3.22,6.94 0.08,0.25 0.15,0.5 0.2,0.76 z m 6.75,122.56 c -0.06,-0.02 -0.04,-0.01 0,0.01 z m 0,0.01 c 0.06,0.03 0.16,0.08 -0.01,0.02 z m -24.56,-20.53 -23.68,6.35 c -1.74,0.47 -3.12,1.58 -3.94,3 l -0.02,0.02 0.02,0.01 c -0.83,1.43 -1.11,3.19 -0.64,4.93 v 0.02 c 0.47,1.73 1.59,3.11 3.03,3.94 1.43,0.83 3.19,1.11 4.94,0.64 l 26.24,-7.03 c -0.27,-0.37 -0.54,-0.75 -0.8,-1.13 l -0.01,0.01 c -2.26,-3.29 -4.01,-6.92 -5.14,-10.76 z"
   id="path73" />

   <path
   class="fil2"
   d="m 46.48,177.13 -29.23,7.84 c -8.03,2.15 -12.8,10.41 -10.65,18.45 2.15,8.04 10.42,12.81 18.45,10.65 l 28.43,-7.61 -6.88,-25.67 c -0.32,-1.2 -0.36,-2.44 -0.12,-3.66 z m -27.24,-11.9 c 2.01,7.48 9.69,11.91 17.16,9.91 l 20.58,-5.51 c 7.33,-2.12 11.62,-9.72 9.64,-17.1 -1.97,-7.37 -9.48,-11.81 -16.89,-9.98 l -20.58,5.52 c -7.47,2.01 -11.91,9.69 -9.91,17.16 z m 7.15,53.18 c -8.14,2.18 -12.97,10.54 -10.79,18.68 2.18,8.14 10.55,12.97 18.69,10.79 l 28.24,-7.57 -7.9,-29.47 z m 44.88,-67.12 c 1.71,6.4 -0.13,13.22 -4.81,17.9 11.39,1.38 20.8,9.54 23.78,20.61 l 4.87,18.2 c 3.04,-10.35 11.26,-18.39 21.68,-21.18 l 8.21,-2.2 c 1.21,-0.33 2.45,0.39 2.78,1.6 0.32,1.21 -0.4,2.45 -1.61,2.78 l -8.21,2.2 c -14.08,3.79 -22.43,18.26 -18.68,32.36 l 0.11,0.39 c 0.32,1.2 -0.4,2.45 -1.61,2.77 v 0 c -1.21,0.33 -2.45,-0.39 -2.77,-1.6 L 85.86,190.97 C 82.48,178.42 69.57,170.96 57.01,174.31 l -3.52,0.95 c -1.89,0.5 -3.02,2.46 -2.51,4.35 l 18.44,68.84 c 2.09,7.78 7.51,14.27 14.79,17.7 0.54,0.25 1.07,0.5 1.61,0.71 0.23,0.09 0.45,0.17 0.66,0.26 0.56,0.21 1.12,0.4 1.7,0.57 0.18,0.06 0.37,0.11 0.56,0.16 0.63,0.15 1.22,0.31 1.84,0.44 l 0.3,0.06 c 0.72,0.13 1.44,0.23 2.16,0.31 0.1,0.01 0.19,0.02 0.28,0.03 0.73,0.07 1.47,0.11 2.21,0.12 0.08,-0.02 0.19,0 0.28,0 0.74,0.01 1.48,-0.02 2.21,-0.07 l 0.29,-0.03 c 0.74,-0.06 1.48,-0.15 2.22,-0.28 0.08,-0.02 0.16,-0.05 0.25,-0.07 0.76,-0.14 1.52,-0.3 2.27,-0.5 1.8,-0.48 3.56,-1.05 5.29,-1.66 33.66,-11.96 53.09,-48.08 43.68,-83.17 l -2.13,-7.96 c -8.23,-30.55 -39.64,-48.69 -70.21,-40.54 l -18.25,4.89 c 4.85,2.33 8.45,6.67 9.84,11.87 z m -7.55,93.39 -29.53,7.92 c -6.71,1.79 -10.7,8.7 -8.9,15.42 1.8,6.71 8.7,10.7 15.42,8.9 l 36.39,-9.75 c -5.9,-4.29 -10.16,-10.48 -12.05,-17.53 0,0 -0.01,-0.01 -0.01,-0.02 z"
   id="path75" />

   <path
   class="fil0"
   d="m 217.91,178.63 14.37,8.3 c 6.13,3.54 11.09,8.61 14.52,14.57 0.69,1.2 1.32,2.43 1.89,3.7 2.29,-3.64 4.47,-6.9 6.92,-10.34 4.9,-6.88 10.92,-14.57 21.22,-27.71 4.03,-5.14 8.81,-11.23 14.49,-18.51 5.38,-6.91 11.87,-15.27 19.88,-25.65 l 0.28,-0.42 0.01,0.01 c 0.07,-0.1 0.15,-0.23 0.25,-0.41 l 0.01,0.01 c 0.92,-1.61 1.11,-3.46 0.66,-5.15 -0.45,-1.67 -1.54,-3.18 -3.16,-4.11 l 0.01,-0.01 c -1.46,-0.84 -3.13,-1.07 -4.7,-0.76 -1.56,0.3 -3.01,1.14 -4.04,2.47 -13.62,13.61 -39.1,48.77 -51.78,65.58 -1.29,1.65 -3.08,2.69 -5,3.06 -1.68,0.33 -3.48,0.13 -5.13,-0.66 -0.21,-0.09 -0.42,-0.19 -0.62,-0.31 -1.8,-1.04 -3.09,-2.67 -3.72,-4.51 l 0.02,-0.01 c -0.64,-1.84 -0.63,-3.9 0.14,-5.81 h 0.01 l 30.63,-76.97 0.13,-0.36 c 0.59,-1.55 0.57,-3.21 0.05,-4.69 -0.49,-1.38 -1.43,-2.6 -2.74,-3.44 -0.2,-0.1 -0.4,-0.22 -0.59,-0.35 -1.53,-0.76 -3.24,-0.89 -4.81,-0.47 -1.56,0.42 -2.97,1.38 -3.9,2.79 -0.12,0.24 -0.25,0.47 -0.41,0.7 l -0.16,0.38 -22.57,55.85 c 0.51,2.52 0.62,5.09 0.32,7.62 -0.36,3.1 -1.33,6.15 -2.89,8.97 -0.07,0.14 -0.14,0.27 -0.21,0.4 z m 2.65,-42.12 20.9,-51.72 c 0.1,-0.25 0.26,-0.59 0.49,-1.04 0.22,-0.45 0.4,-0.79 0.53,-1 0.06,-0.12 0.13,-0.22 0.2,-0.33 l -0.01,-0.01 0.17,-0.24 c 2.64,-4.22 6.67,-7.05 11.13,-8.25 4.66,-1.25 9.82,-0.71 14.35,1.91 l 0.02,0.01 v -0.01 l 0.33,0.19 h 0.01 l 0.08,0.06 c 3.81,2.32 6.54,5.83 7.96,9.81 1.46,4.12 1.5,8.74 -0.15,13.07 -0.07,0.18 -0.14,0.36 -0.22,0.52 l -21.01,52.77 35.62,-45.1 c 2.9,-3.73 6.96,-6.1 11.31,-6.95 4.32,-0.84 8.96,-0.16 13.05,2.2 l 0.02,0.01 v -0.01 c 4.53,2.61 7.57,6.81 8.82,11.49 1.25,4.67 0.72,9.82 -1.9,14.35 l -0.01,0.02 h 0.01 c -0.19,0.33 -0.42,0.69 -0.69,1.09 l -0.01,0.02 0.01,0.01 c -0.17,0.26 -0.43,0.6 -0.76,1.03 -7.28,9.45 -13.96,18.05 -19.93,25.7 -5.67,7.28 -10.45,13.37 -14.48,18.51 -10.1,12.89 -16.02,20.44 -20.89,27.28 -4.78,6.73 -8.5,12.72 -14.24,22.52 -0.94,1.61 -2.51,2.62 -4.21,2.92 -0.65,3.77 -1.93,7.49 -3.88,11.02 -0.15,0.34 -0.33,0.66 -0.53,0.96 -4.71,8.04 -10.7,14.84 -17.65,20.16 -7.12,5.44 -15.22,9.31 -23.96,11.35 l -0.29,0.06 c -7.86,1.77 -15.89,2.04 -23.7,0.87 -7.89,-1.18 -15.59,-3.85 -22.66,-7.93 -0.66,-0.38 -1.25,-0.74 -1.77,-1.06 l -0.02,-0.01 -0.01,0.01 c -0.54,-0.34 -1.13,-0.72 -1.75,-1.13 l -0.28,-0.2 c -13.88,-9.35 -22.86,-23.55 -26.2,-39.17 -3.34,-15.62 -1.04,-32.68 7.65,-47.74 l 5.95,-10.31 c 0.8,-1.38 2.06,-2.34 3.48,-2.77 0.31,-2.62 1.14,-5.23 2.54,-7.66 l 0.02,-0.02 h -0.01 l 9.83,-17.04 c 2.76,-4.76 7.17,-7.95 12.08,-9.26 4.9,-1.32 10.31,-0.75 15.07,1.99 l 0.02,0.01 0.01,-0.01 c 4,2.32 6.89,5.81 8.49,9.78 2.56,-3.89 6.31,-6.64 10.52,-8 4.52,-1.46 9.58,-1.31 14.22,0.77 0.3,0.14 0.63,0.28 0.91,0.43 l 0.01,-0.01 c 0.19,0.09 0.48,0.25 0.89,0.49 l 0.07,0.04 c 0.12,0.07 0.23,0.14 0.34,0.22 l 0.44,0.27 0.46,0.3 c 0.43,0.27 0.7,0.49 0.96,0.71 l 0.29,0.23 c 0.09,0.07 0.26,0.21 0.56,0.48 0.6,0.53 0.35,0.3 0.42,0.36 l 0.54,0.51 c 0.13,0.12 0.25,0.25 0.37,0.39 z m -8.56,8.62 -0.03,-0.04 z m 0.13,0.16 -0.01,-0.01 0.02,0.03 v 0 z m 0.04,0.06 -0.02,-0.02 0.01,0.03 z m -0.03,-0.04 -0.11,-0.14 -0.25,-0.26 -0.22,-0.21 c -0.19,-0.19 0.07,0.05 -0.07,-0.08 l -0.15,-0.14 c -0.25,-0.24 0.12,0.09 -0.22,-0.22 l -0.05,-0.03 c 0.01,0 0.05,0.05 -0.04,-0.02 -0.25,-0.2 -0.49,-0.38 -0.76,-0.57 l -0.07,-0.06 c -0.2,-0.1 -0.38,-0.2 -0.57,-0.3 v -0.01 l -0.22,-0.12 -0.13,-0.05 c -1.81,-0.81 -3.78,-0.87 -5.56,-0.29 -1.75,0.56 -3.31,1.77 -4.31,3.49 l -0.01,-0.01 -9.38,16.24 13.41,7.74 9.39,-16.25 h 0.01 c 0.55,-0.96 0.87,-2.04 0.97,-3.16 0.1,-1.13 -0.05,-2.27 -0.44,-3.34 l -0.02,-0.04 c 0.01,0.03 0.01,0.03 0,0 v -0.01 l -0.13,-0.31 -0.06,-0.17 c -0.03,-0.08 0.02,0.05 -0.06,-0.12 v 0 c -0.09,-0.18 -0.18,-0.38 -0.28,-0.55 0,0.01 0,0.01 -0.03,-0.04 l -0.27,-0.43 -0.25,-0.36 -0.13,-0.17 z m 0.95,1.53 0.01,0.02 z m 0.21,0.48 c 0,-0.01 0,-0.01 0,0 z m 0.04,0.15 v -0.01 z m 4.97,-13.01 0.03,0.03 z m 0,0 -0.08,-0.06 z m -39.81,10.22 c -0.51,-1.91 -1.75,-3.63 -3.6,-4.7 l 0.01,-0.01 c -1.84,-1.05 -3.95,-1.26 -5.87,-0.75 -1.91,0.51 -3.63,1.75 -4.7,3.6 l -9.62,16.67 c -0.12,0.24 -0.25,0.47 -0.41,0.7 -0.89,1.75 -1.05,3.72 -0.57,5.53 0.49,1.81 1.64,3.45 3.33,4.52 0.21,0.11 0.41,0.23 0.61,0.36 1.61,0.83 3.42,1.03 5.11,0.68 1.7,-0.35 3.29,-1.29 4.45,-2.74 0.21,-0.36 0.41,-0.68 0.61,-0.97 l 0.37,-0.51 9.53,-16.51 h 0.01 c 1.05,-1.84 1.26,-3.94 0.74,-5.87 z m -17.99,43.4 c -3.84,-0.11 -7.65,-1.13 -11.1,-3.04 -0.13,-0.07 -0.27,-0.14 -0.4,-0.21 l -0.03,-0.02 c -2.28,-1.32 -4.32,-2.99 -6.04,-4.94 l -0.41,0.7 c -7.13,12.35 -9.02,26.36 -6.27,39.18 2.7,12.64 9.94,24.1 21.1,31.64 l 0.19,0.11 c 0.43,0.29 0.92,0.6 1.47,0.94 l -0.01,0.01 c 0.54,0.34 1.02,0.63 1.43,0.86 5.69,3.29 11.93,5.44 18.37,6.41 6.37,0.96 12.91,0.74 19.26,-0.69 l 0.21,-0.05 c 7.05,-1.65 13.6,-4.77 19.34,-9.16 5.79,-4.43 10.79,-10.16 14.72,-16.97 l 0.01,0.01 c 3.16,-5.49 3.8,-11.77 2.27,-17.47 -1.53,-5.69 -5.22,-10.81 -10.71,-13.99 v -0.01 L 181.67,177 l -0.11,0.12 c -0.02,0.03 0,0.01 0.01,-0.01 l -0.08,0.16 c -0.6,1.08 -1.05,2.21 -1.34,3.35 -0.31,1.17 -0.47,2.38 -0.48,3.57 0,0.83 0.07,1.7 0.23,2.6 0.14,0.84 0.36,1.67 0.65,2.5 0.59,1.66 1.45,3.17 2.53,4.47 1.08,1.29 2.4,2.41 3.92,3.29 l 21.02,12.13 c 0.24,0.12 0.47,0.26 0.7,0.41 v 0.01 c 1.81,1.16 3.04,2.92 3.56,4.86 0.48,1.81 0.36,3.79 -0.47,5.6 -0.15,0.37 -0.34,0.73 -0.57,1.07 h -0.01 c -1.16,1.81 -2.92,3.04 -4.86,3.56 -2.05,0.54 -4.31,0.31 -6.31,-0.84 l -0.01,-0.01 c -4.41,-2.54 -9.46,-3.06 -14.04,-1.84 -4.58,1.23 -8.69,4.19 -11.24,8.59 h -0.02 l -3.77,6.53 -0.18,0.34 c -1.15,2 -3.01,3.34 -5.07,3.89 -1.84,0.49 -3.87,0.35 -5.71,-0.53 -0.21,-0.09 -0.42,-0.2 -0.62,-0.32 -2,-1.15 -3.34,-3 -3.89,-5.06 -0.55,-2.05 -0.31,-4.32 0.85,-6.31 l 3.78,-6.56 0.18,-0.34 c 3.02,-5.22 7.27,-9.48 12.26,-12.5 0.64,-0.39 1.3,-0.76 1.97,-1.1 -3.68,-3.01 -6.58,-6.76 -8.55,-10.95 -1.43,-3.04 -2.38,-6.3 -2.78,-9.67 -0.9,0.07 -1.81,0.1 -2.71,0.07 z m 21.09,-11.02 v 0 -0.01 z m -0.02,0.05 c 0,-0.01 0.01,-0.01 0,0 z"
   id="path77" />

   <path
   class="fil3"
   d="m 229.24,192.19 -19.63,-11.33 12.42,-21.52 c 2.51,-4.35 3.12,-9.56 1.67,-14.38 l 23.35,-57.79 c 0.2,-0.47 0.43,-0.93 0.68,-1.38 3.55,-6.15 11.42,-8.25 17.57,-4.7 5.46,3.15 7.83,9.81 5.58,15.71 l -30.81,77.42 c -0.42,1.05 -0.01,2.25 0.97,2.81 0.97,0.56 2.22,0.32 2.91,-0.56 l 51.79,-65.59 c 3.94,-5.05 11.01,-6.43 16.56,-3.22 6.14,3.55 8.25,11.41 4.7,17.56 -0.3,0.51 -0.63,1.01 -1,1.48 -15.29,19.83 -26.32,33.91 -34.38,44.19 -20.41,26.03 -23.88,30.46 -35.58,50.46 0.01,-12.02 -6.4,-23.14 -16.81,-29.16 z m -12.69,-51.08 c 0.14,0.16 0.27,0.32 0.38,0.47 0.13,0.17 0.27,0.34 0.37,0.5 0.1,0.17 0.26,0.37 0.38,0.55 l 0.31,0.51 c 0.13,0.21 0.24,0.42 0.35,0.64 0.11,0.22 0.17,0.31 0.24,0.47 0.08,0.16 0.22,0.49 0.32,0.75 0.06,0.14 0.12,0.28 0.17,0.43 1.41,3.83 1.05,8.1 -0.99,11.63 l -12.42,21.52 -18.78,-10.85 c -0.01,0 -0.02,0 -0.02,-0.01 -1.83,-1.05 -3.94,-1.53 -6.04,-1.37 l 13.33,-23.1 c 3.55,-6.12 11.15,-8.58 17.61,-5.7 0.42,0.19 0.83,0.4 1.23,0.63 0.01,0 0.02,0.01 0.03,0.02 0,0 0,0 0,0 0.38,0.22 0.75,0.46 1.1,0.71 0.15,0.09 0.28,0.22 0.42,0.32 0.14,0.11 0.41,0.32 0.6,0.49 0.19,0.16 0.31,0.28 0.46,0.42 0.16,0.14 0.32,0.3 0.47,0.46 z m -38.6,-6.39 c 6.6,3.82 8.86,12.27 5.06,18.87 l -9.73,16.84 c -0.3,0.38 -0.58,0.79 -0.82,1.21 -0.06,0.1 -0.12,0.2 -0.18,0.3 -4.17,5.63 -11.91,7.23 -17.98,3.73 -6.6,-3.81 -8.87,-12.26 -5.06,-18.86 0.01,-0.01 0.02,-0.02 0.02,-0.03 l 9.82,-17.01 c 3.82,-6.6 12.27,-8.86 18.87,-5.05 z m -25.89,44.85 c 5.33,3.08 11.86,3.27 17.37,0.51 -1.75,10.43 3.16,20.86 12.31,26.15 l 7.85,4.53 c -9.95,0.41 -19.02,5.89 -24.01,14.52 l -3.97,6.87 c -0.62,1.08 -0.25,2.47 0.83,3.09 1.09,0.63 2.47,0.26 3.1,-0.82 l 3.97,-6.87 c 6.8,-11.73 21.82,-15.74 33.57,-8.97 1.08,0.63 2.47,0.26 3.09,-0.83 v 0 c 0.63,-1.08 0.26,-2.47 -0.83,-3.09 l -21.35,-12.33 c 0,0 -0.01,-0.01 -0.01,-0.01 -4.27,-2.46 -7.52,-6.36 -9.16,-11 -0.82,-2.29 -1.23,-4.72 -1.22,-7.15 0.02,-3.44 0.9,-6.82 2.56,-9.83 0.08,-0.13 0.15,-0.27 0.23,-0.4 0.16,-0.27 0.35,-0.53 0.56,-0.77 0.03,-0.06 0.07,-0.13 0.11,-0.19 1.9,-2.18 5.08,-2.71 7.58,-1.27 l 42.31,24.43 c 13.9,8.05 18.67,25.84 10.65,39.76 v 0 c -8.66,15.01 -22.14,25.31 -37.94,29.01 -14.37,3.29 -29.47,1.03 -42.25,-6.34 -1.09,-0.63 -2.17,-1.31 -3.22,-2 -25.31,-16.89 -32.74,-51.62 -16.92,-79.02 l 5.95,-10.3 c 1.03,5.17 4.24,9.66 8.81,12.3 0.01,0.01 0.02,0.01 0.03,0.02 z"
   id="path79" />

  </g>

 </g>
    </g>
  </g>
</svg>
