<?xml version="1.0" encoding="UTF-8"?>
<!DOCTYPE svg PUBLIC "-//W3C//DTD SVG 1.1//EN" "http://www.w3.org/Graphics/SVG/1.1/DTD/svg11.dtd">
<!-- Creator: CorelDRAW 2020 (64 Bit) -->
<svg xmlns="http://www.w3.org/2000/svg" xml:space="preserve" width="512px" height="512px" version="1.1" style="shape-rendering:geometricPrecision; text-rendering:geometricPrecision; image-rendering:optimizeQuality; fill-rule:evenodd; clip-rule:evenodd"
viewBox="0 0 94.78 94.78"
 xmlns:xlink="http://www.w3.org/1999/xlink"
 xmlns:xodm="http://www.corel.com/coreldraw/odm/2003">
 <defs>
  <style type="text/css">
   <![CDATA[
    .fil1 {fill:none}
    .fil0 {fill:#00DFBA;fill-rule:nonzero}
   ]]>
  </style>
 </defs>
 <g id="Camada_x0020_1">
  <metadata id="CorelCorpID_0Corel-Layer"/>
  <path class="fil0" d="M75.28 22.25c-2.35,0 -4.27,1.91 -4.27,4.26l0 20.37c0,0.52 -0.42,0.94 -0.94,0.94 -0.52,0 -0.94,-0.42 -0.94,-0.94l0 -30.39c0,-2.75 -2.24,-4.99 -5,-4.99 -1.4,0 -2.68,0.52 -3.6,1.48 -0.9,0.93 -1.39,2.19 -1.39,3.53l0 30.37c0,0.52 -0.43,0.94 -0.95,0.94 -0.52,0 -0.94,-0.42 -0.94,-0.94l0 -29.99c0,-2.97 -2.42,-5.39 -5.39,-5.39 -3.38,0 -5.39,2.91 -5.39,5.73l0 29.65c0,0.52 -0.43,0.94 -0.95,0.94 -0.52,0 -0.94,-0.42 -0.94,-0.94l0 -24.28c0,-2.76 -2.24,-5 -5,-5 -3.12,0 -4.99,2.7 -4.99,5.31l0 36.86 11.09 0c4.43,0 8.63,1.92 11.53,5.27 0.34,0.4 0.29,0.99 -0.1,1.34 -0.18,0.15 -0.4,0.22 -0.62,0.22 -0.26,0 -0.53,-0.11 -0.71,-0.32 -2.54,-2.94 -6.22,-4.62 -10.1,-4.62l-12.03 0c-0.05,0 -0.09,-0.01 -0.13,-0.02 -0.02,0 -0.03,0 -0.05,0 -0.08,-0.02 -0.15,-0.04 -0.22,-0.08 -0.02,0 -0.04,-0.01 -0.05,-0.02 -0.07,-0.04 -0.12,-0.08 -0.18,-0.12 0,-0.01 -0.01,-0.01 -0.02,-0.02l-4.68 -4.4c-1.73,-1.62 -3.92,-2.43 -6.11,-2.43 -2.27,0 -4.54,0.87 -6.28,2.61 -0.89,0.88 -0.92,2.29 -0.07,3.21l17.71 19.22c7.11,7.88 14.33,11.09 24.93,11.09 11.6,0 21.04,-9.54 21.04,-21.26l0 -42.72c0,-2.17 -1.5,-4.47 -4.26,-4.47z"/>
  <rect class="fil1" width="94.78" height="94.78"/>
 </g>
</svg>
